# xmcd CD database file
#
# Track frame offsets:
#	150
#	16250
#	31300
#	41700
#	74375
#	91475
#	110025
#	132050
#	146575
#	168000
#	182875
#	211475
#	231300
#	260752
#	275900
#	292275
#
# Disc length: 4124 seconds
#
# Revision: 0
# Processed by: cddbd v1.5.1PL2 Copyright (c) Steve Scherf et al.
# Submitted via: CDex 1.51
#
DISCID=fd101a10
DTITLE=Victor Jazz History Vol. 15  - Progressive Jazz
DYEAR=1997
DGENRE=Jazz
TTITLE0=Sauter Finegan Orchestra - Azure Te
TTITLE1=Shorty Rogers and his giants - Diablos dance
TTITLE2=Sauter Finegan Orchestra - Two bats in a cave
TTITLE3=Hal McKusick Jazz Workshop - The day John Brown was hanged
TTITLE4=George Russell Smalltet - Jacks Blues
TTITLE5=Hal McKusseck Ninetet - Jambangle
TTITLE6=Hal McKusseck Ninetet - Blues from Pablo
TTITLE7=John Carisi  - Honeysuckle rose
TTITLE8=George Russell Smalltet - concerto for Billy the Kid
TTITLE9=George Russell Smalltet - ballad of Hix Blewitt
TTITLE10=Sauter Finegan Orchestra - These foolish things
TTITLE11=John Lewis and members of the Stuttgard Symphony Orchestra - The queens fancy
TTITLE12=John Lewis and members of the Stuttgard Symphony Orchestra - Two degrees east
TTITLE13=Sauter Finegan Orchestra - Clarinet a la king
TTITLE14=Rod Lewitt Orchestra - Vera Cruz
TTITLE15=Woody Herman and his Orchestra - Early autumn
EXTD=YEAR: 1997
EXTT0=
EXTT1=
EXTT2=
EXTT3=
EXTT4=
EXTT5=
EXTT6=
EXTT7=
EXTT8=
EXTT9=
EXTT10=
EXTT11=
EXTT12=
EXTT13=
EXTT14=
EXTT15=
PLAYORDER=
